# xmcd CD database file
#
# Track frame offsets:
#	150
#	15673
#	31757
#	51578
#	67386
#	82737
#	94825
#	110884
#
# Disc length: 1739 seconds
#
# Revision: 0
# Processed by: cddbd v1.4PL0 Copyright (c) Steve Scherf et al.
# Submitted via: CDex 1.50beta10
#
DISCID=6906c908
DTITLE=Winnetonka Jazz Band - Amber Waves
DYEAR=2002
DGENRE=Jazz
TTITLE0=Amber Waves
TTITLE1=Splanky
TTITLE2=You Snooze, You Lose
TTITLE3=Sultry Sunset
TTITLE4=Starburst
TTITLE5=Such Sweet Thunder
TTITLE6=Where Is The Love
TTITLE7=Bang That Wall Harvey
EXTD=YEAR: 2002
EXTT0=
EXTT1=
EXTT2=
EXTT3=
EXTT4=
EXTT5=
EXTT6=
EXTT7=
PLAYORDER=
